<svg xmlns="http://www.w3.org/2000/svg" xmlns:xlink="http://www.w3.org/1999/xlink" width="500" zoomAndPan="magnify" viewBox="0 0 375 374.999991" height="500" preserveAspectRatio="xMidYMid meet" version="1.0"><defs><g/><clipPath id="8de72f39e9"><path d="M 336 19 L 375 19 L 375 97 L 336 97 Z M 336 19 " clip-rule="nonzero"/></clipPath><clipPath id="c50e1904ae"><rect x="0" width="375" y="0" height="131"/></clipPath></defs><g transform="matrix(1, 0, 0, 1, 0, 112)"><g clip-path="url(#c50e1904ae)"><g fill="#0b0b0b" fill-opacity="1"><g transform="translate(0.0000045, 96.550415)"><g><path d="M 3.390625 0 L 3.390625 -76.734375 L 34.125 -76.734375 L 34.125 -61.8125 L 18.84375 -61.8125 L 18.84375 -49.578125 L 33.3125 -49.578125 L 33.3125 -34.84375 L 18.84375 -34.84375 L 18.84375 0 Z M 3.390625 0 "/></g></g></g><g fill="#0b0b0b" fill-opacity="1"><g transform="translate(35.637545, 96.550415)"><g><path d="M 3.390625 0 L 3.390625 -76.734375 L 34.125 -76.734375 L 34.125 -61.90625 L 19.03125 -61.90625 L 19.03125 -46.984375 L 33.5 -46.984375 L 33.5 -32.515625 L 19.03125 -32.515625 L 19.03125 -14.921875 L 35.109375 -14.921875 L 35.109375 0 Z M 3.390625 0 "/></g></g></g><g fill="#0b0b0b" fill-opacity="1"><g transform="translate(72.436213, 96.550415)"><g><path d="M 1.34375 0 L 8.75 -76.734375 L 34.75 -76.734375 L 42.078125 0 L 27.515625 0 L 26.4375 -12.421875 L 17.15625 -12.421875 L 16.25 0 Z M 18.3125 -24.65625 L 25.28125 -24.65625 L 21.890625 -63.6875 L 21.171875 -63.6875 Z M 18.3125 -24.65625 "/></g></g></g><g fill="#0b0b0b" fill-opacity="1"><g transform="translate(115.755045, 96.550415)"><g><path d="M 21.625 0.71875 C 14.65625 0.71875 9.617188 -1.003906 6.515625 -4.453125 C 3.421875 -7.910156 1.875 -13.484375 1.875 -21.171875 L 1.875 -28.671875 L 16.96875 -28.671875 L 16.96875 -19.109375 C 16.96875 -15.304688 18.191406 -13.40625 20.640625 -13.40625 C 22.003906 -13.40625 22.953125 -13.804688 23.484375 -14.609375 C 24.023438 -15.410156 24.296875 -16.765625 24.296875 -18.671875 C 24.296875 -21.171875 24 -23.238281 23.40625 -24.875 C 22.8125 -26.507812 22.050781 -27.878906 21.125 -28.984375 C 20.195312 -30.085938 18.546875 -31.800781 16.171875 -34.125 L 9.5625 -40.734375 C 4.4375 -45.734375 1.875 -51.269531 1.875 -57.34375 C 1.875 -63.894531 3.375 -68.882812 6.375 -72.3125 C 9.382812 -75.738281 13.78125 -77.453125 19.5625 -77.453125 C 26.46875 -77.453125 31.4375 -75.617188 34.46875 -71.953125 C 37.507812 -68.285156 39.03125 -62.554688 39.03125 -54.765625 L 23.40625 -54.765625 L 23.3125 -60.03125 C 23.3125 -61.039062 23.03125 -61.84375 22.46875 -62.4375 C 21.90625 -63.03125 21.113281 -63.328125 20.09375 -63.328125 C 18.90625 -63.328125 18.015625 -63 17.421875 -62.34375 C 16.828125 -61.695312 16.53125 -60.804688 16.53125 -59.671875 C 16.53125 -57.171875 17.957031 -54.582031 20.8125 -51.90625 L 29.75 -43.328125 C 31.832031 -41.296875 33.554688 -39.375 34.921875 -37.5625 C 36.296875 -35.75 37.398438 -33.601562 38.234375 -31.125 C 39.066406 -28.65625 39.484375 -25.722656 39.484375 -22.328125 C 39.484375 -14.765625 38.097656 -9.03125 35.328125 -5.125 C 32.554688 -1.226562 27.988281 0.71875 21.625 0.71875 Z M 21.625 0.71875 "/></g></g></g><g fill="#0b0b0b" fill-opacity="1"><g transform="translate(156.930288, 96.550415)"><g><path d="M 10 0 L 10 -62 L 0.890625 -62 L 0.890625 -76.734375 L 34.484375 -76.734375 L 34.484375 -62 L 25.375 -62 L 25.375 0 Z M 10 0 "/></g></g></g><g fill="#0b0b0b" fill-opacity="1"><g transform="translate(192.299896, 96.550415)"><g><path d="M 9.375 0 L 1.15625 -76.734375 L 16.171875 -76.734375 L 20.453125 -28.3125 L 24.75 -76.734375 L 39.03125 -76.734375 L 43.140625 -28.3125 L 47.25 -76.734375 L 62.4375 -76.734375 L 54.046875 0 L 35.640625 0 L 31.796875 -36.984375 L 28.140625 0 Z M 9.375 0 "/></g></g></g><g fill="#0b0b0b" fill-opacity="1"><g transform="translate(254.017902, 96.550415)"><g><path d="M 1.34375 0 L 8.75 -76.734375 L 34.75 -76.734375 L 42.078125 0 L 27.515625 0 L 26.4375 -12.421875 L 17.15625 -12.421875 L 16.25 0 Z M 18.3125 -24.65625 L 25.28125 -24.65625 L 21.890625 -63.6875 L 21.171875 -63.6875 Z M 18.3125 -24.65625 "/></g></g></g><g fill="#0b0b0b" fill-opacity="1"><g transform="translate(297.336734, 96.550415)"><g><path d="M 3.390625 0 L 3.390625 -76.734375 L 18.765625 -76.734375 L 18.765625 -13.046875 L 34.5625 -13.046875 L 34.5625 0 Z M 3.390625 0 "/></g></g></g><g clip-path="url(#8de72f39e9)"><g fill="#0b0b0b" fill-opacity="1"><g transform="translate(332.795674, 96.550415)"><g><path d="M 3.390625 0 L 3.390625 -76.734375 L 18.578125 -76.734375 L 18.578125 -46 L 25.71875 -76.734375 L 41.1875 -76.734375 L 32.609375 -41.625 L 42.96875 0 L 27.0625 0 L 18.671875 -37.15625 L 18.671875 0 Z M 3.390625 0 "/></g></g></g></g></g></g></svg>